<svg viewBox="-1 -1 64 64" xmlns="http://www.w3.org/2000/svg" id="Brain-1--Streamline-Ux.svg" height="64" width="64"><desc>Brain 1 Streamline Illustration: https://streamlinehq.com</desc><path d="M3.7049959999999995 33.369206C3.7049959999999995 54.380882 26.450812 67.513226 44.647502 57.007326C53.092584 52.131584000000004 58.295004 43.120751999999996 58.295004 33.369206C58.295004 12.35753 35.549188 -0.774814 17.352498 9.731024C8.907416 14.606828 3.7049959999999995 23.61766 3.7049959999999995 33.369206Z" fill="#daedf7" stroke="#daedf7" stroke-width="2"></path><path d="M3.7049959999999995 33.369206C3.7049959999999995 54.380882 26.450812 67.513226 44.647502 57.007326C53.092584 52.131584000000004 58.295004 43.120751999999996 58.295004 33.369206C58.295004 12.35753 35.549188 -0.774814 17.352498 9.731024C8.907416 14.606828 3.7049959999999995 23.61766 3.7049959999999995 33.369206Z" fill="none" stroke="#daedf7" stroke-linecap="round" stroke-linejoin="round" stroke-width="2"></path><path d="M45.899654 61.038814L45.862826000000005 43.825258000000005C51.867712000000004 39.784222 53.529932 35.071044 53.529932 28.159284C53.602596 23.363832 52.33494399999999 18.6434 49.8697 14.529513999999999C49.85810600000001 15.738018 41.76443999999999 16.717246 31.782006 16.717246S13.71068 15.738700000000001 13.694311999999998 14.533605999999999C12.257028 16.98676 11.513152 19.784262 11.542105999999999 22.627272C11.542105999999999 24.544064000000002 3.045812 37.543293999999996 7.905682 37.744608C9.37006 37.804624 11.36398 37.744608 11.36398 37.744608V44.042258C11.364352 46.915276 13.693319999999998 49.244306 16.566399999999998 49.244678H22.86405L22.90497 60.868252" fill="#ffcebf" stroke-width="2"></path><path d="M45.899654 61.038814L45.862826000000005 43.825258000000005C51.867712000000004 39.784222 53.529932 35.071044 53.529932 28.159284C53.602596 23.363832 52.33494399999999 18.6434 49.8697 14.529513999999999C49.85810600000001 15.738018 41.76443999999999 16.717246 31.782006 16.717246S13.71068 15.738700000000001 13.694311999999998 14.533605999999999C12.257028 16.98676 11.513152 19.784262 11.542105999999999 22.627272C11.542105999999999 24.544064000000002 3.045812 37.543293999999996 7.905682 37.744608C9.37006 37.804624 11.36398 37.744608 11.36398 37.744608V44.042258C11.364352 46.915276 13.693319999999998 49.244306 16.566399999999998 49.244678H22.86405L22.90497 60.868252" fill="none" stroke="#45413c" stroke-linecap="round" stroke-linejoin="round" stroke-width="2"></path><path d="M17.49237 28.159284C17.490014000000002 29.338028 18.76461 30.077316 19.786618 29.489990000000002C20.26284 29.216322 20.555976 28.708541999999998 20.554859999999998 28.159284C20.557278 26.98054 19.282681999999998 26.241252 18.260674 26.828578C17.784451999999998 27.102245999999997 17.491316 27.610025999999998 17.49237 28.159284Z" fill="#45413c" stroke-width="2"></path><path d="M13.435648 15.478734C13.427464 19.969455999999997 28.835393999999997 22.778924 41.170046 20.535826C46.901202 19.493606 50.431048000000004 17.565282 50.427203999999996 15.478734C50.435449999999996 10.988012 35.027457999999996 8.178482 22.692806 10.42158C16.961712000000002 11.463799999999999 13.431866000000001 13.392124 13.435648 15.478734Z" fill="#ffdcd1" stroke="#45413c" stroke-linecap="round" stroke-linejoin="round" stroke-width="2"></path><path d="M15.97275 14.678252C16.541847999999998 16.295522000000002 18.182244 16.917816 20.727529999999998 17.821962C28.063741999999998 20.428628 37.617694 19.863622 43.723578 17.607689999999998C46.910253999999995 16.43062 47.456846 15.871751999999999 47.456846 14.043682C47.50936 12.275566 46.519344 10.641183999999999 44.927928 9.868912C44.698652 6.964708 42.553948000000005 4.687634 39.938416 4.687634C39.761902 4.687944 39.585512 4.69867 39.410238 4.719688C37.947348 2.234542 35.302428 0.683488 32.419366 0.62C29.843204 0.6616639999999999 27.437170000000002 1.9144979999999998 25.925857999999998 4.00117C25.408716 3.658992 24.803843999999998 3.473302 24.183782 3.4661720000000003C22.535325999999998 3.542122 21.141938 4.71262 20.782833999999998 6.323256C17.899772 6.431755999999999 15.590644 9.113503999999999 15.590644 12.414818C15.588908 13.18554 15.718116 13.950868 15.97275 14.678252Z" fill="#ff87af" stroke-width="2"></path><path d="M47.318276 15.22007C47.033448 13.901826 46.150382 12.791716 44.929973999999994 12.217658C44.700697999999996 9.313454 42.555994 7.03638 39.940462000000004 7.03638C39.7637 7.03669 39.587124 7.047416 39.411602 7.068434C37.950076 4.58118 35.304226 3.028638 32.420048 2.966018C29.8437 3.007682 27.437479999999997 4.260454 25.925857999999998 6.347187999999999C25.408406 6.005816 24.803658 5.8205599999999995 24.183782 5.813554C22.535140000000002 5.889566 21.14169 7.060436 20.782833999999998 8.67132C18.249824 8.76618 16.161106 10.848139999999999 15.690216 13.591949999999999C15.62369 13.203581999999999 15.590334 12.810254 15.590644 12.416182C15.590644 9.114868 17.899772 6.43312 20.782833999999998 6.324682C21.141442 4.713488 22.534892000000003 3.542246 24.183782 3.4661720000000003C24.803658 3.472868 25.40853 3.658124 25.925857999999998 3.999806C27.437479999999997 1.91363 29.843452 0.661354 32.419366 0.62C35.302676 0.6832400000000001 37.947905999999996 2.234356 39.410920000000004 4.719688C39.586194 4.69867 39.762584000000004 4.687944 39.939098 4.687634C42.554629999999996 4.687634 44.69933399999999 6.964708 44.928610000000006 9.868912C46.519839999999995 10.641122 47.509794 12.275132000000001 47.457527999999996 14.043C47.47098200000001 14.440172 47.424048 14.837034000000001 47.318338000000004 15.22007Z" fill="#ffb0ca" stroke-width="2"></path><path d="M28.431526 19.172384C30.712692 17.032453999999998 29.854983999999998 14.468134 33.851628 13.229622" fill="none" stroke="#45413c" stroke-linecap="round" stroke-linejoin="round" stroke-width="2"></path><path d="M22.32496 18.331044C24.102004 17.902252 25.329666 16.279092 25.25849 14.452386" fill="none" stroke="#45413c" stroke-linecap="round" stroke-linejoin="round" stroke-width="2"></path><path d="M23.46793 13.636962C24.1738 14.209407999999998 25.066786 14.49994 25.97428 14.452386C27.465999999999998 14.452386 28.480691999999998 12.99489 29.197163999999997 11.198191999999999C29.609216 10.16056 30.368405999999997 9.297892000000001 31.345278 8.757314000000001" fill="none" stroke="#45413c" stroke-linecap="round" stroke-linejoin="round" stroke-width="2"></path><path d="M39.410920000000004 4.719688C37.277066 4.947786 35.362444 6.133288 34.207136 7.94189" fill="none" stroke="#45413c" stroke-linecap="round" stroke-linejoin="round" stroke-width="2"></path><path d="M37.915852 19.071386C35.534493999999995 17.851164 35.10006 14.630388 37.073148 12.822902" fill="none" stroke="#45413c" stroke-linecap="round" stroke-linejoin="round" stroke-width="2"></path><path d="M44.928610000000006 9.868912C43.312394 9.025649999999999 41.348916 9.227832 39.938416 10.382706" fill="none" stroke="#45413c" stroke-linecap="round" stroke-linejoin="round" stroke-width="2"></path><path d="M36.716276 9.568646C36.198204 10.63176 36.33758 11.897986 37.074512 12.822902C37.854782 13.992408000000001 39.32288 14.492624 40.654888 14.043C42.770266 13.330620000000001 43.5209 14.043 43.5209 14.043" fill="none" stroke="#45413c" stroke-linecap="round" stroke-linejoin="round" stroke-width="2"></path><path d="M20.782772 6.32462C21.58096 6.17551 22.406180000000003 6.316374 23.109693999999998 6.721792" fill="none" stroke="#45413c" stroke-linecap="round" stroke-linejoin="round" stroke-width="2"></path><path d="M25.925176 4.00117C27.943648 5.043824 28.033051999999998 8.145249999999999 26.334624 9.568646C23.835776 11.660836 21.769502 8.856948 19.889599999999998 11.602804" fill="none" stroke="#45413c" stroke-linecap="round" stroke-linejoin="round" stroke-width="2"></path><path d="M33.851628 10.789426C34.244522 9.740262 34.244522 8.584396 33.851628 7.53517C33.315824 6.073148000000001 31.801474000000002 5.2127740000000005 30.271251999999997 5.501012" fill="none" stroke="#45413c" stroke-linecap="round" stroke-linejoin="round" stroke-width="2"></path><path d="M15.97275 14.678252C16.541847999999998 16.295522000000002 18.182244 16.917816 20.727529999999998 17.821962C28.063741999999998 20.428628 37.617694 19.863622 43.723578 17.607689999999998C46.910253999999995 16.43062 47.456846 15.871751999999999 47.456846 14.043682C47.50936 12.275566 46.519344 10.641183999999999 44.927928 9.868912C44.698652 6.964708 42.553948000000005 4.687634 39.938416 4.687634C39.761902 4.687944 39.585512 4.69867 39.410238 4.719688C37.947348 2.234542 35.302428 0.683488 32.419366 0.62C29.843204 0.6616639999999999 27.437170000000002 1.9144979999999998 25.925857999999998 4.00117C25.408716 3.658992 24.803843999999998 3.473302 24.183782 3.4661720000000003C22.535325999999998 3.542122 21.141938 4.71262 20.782833999999998 6.323256C17.899772 6.431755999999999 15.590644 9.113503999999999 15.590644 12.414818C15.588908 13.18554 15.718116 13.950868 15.97275 14.678252Z" fill="none" stroke="#45413c" stroke-linecap="round" stroke-linejoin="round" stroke-width="2"></path></svg>