<svg viewBox="-1 -1 64 64" xmlns="http://www.w3.org/2000/svg" id="Heart--Streamline-Ux.svg" height="64" width="64"><desc>Heart Streamline Illustration: https://streamlinehq.com</desc><path d="M0.995038 31C0.995038 54.097789999999996 25.999204 68.53393200000001 46.00245 56.985068C55.28602 51.625168 61.004962 41.719738 61.004962 31C61.004962 7.90221 36.000796 -6.533932 15.997549999999999 5.014994C6.71398 10.374832 0.995038 20.280261999999997 0.995038 31Z" fill="#daedf7" stroke="#daedf7" stroke-width="2"></path><path d="M22.491368 53.508232C22.491368 54.46328 30.072604 55.060216 36.137629999999994 54.582692C38.952368 54.361042000000005 40.686322 53.95147 40.686322 53.508232C40.686322 52.553121999999995 33.105086 51.956185999999995 27.040122 52.43371C24.225322 52.655359999999995 22.491368 53.064932 22.491368 53.508232Z" fill="#45413c" opacity=".15" stroke-width="2"></path><path d="M24.098842 20.11497C22.86064 20.115465999999998 21.737385999999997 19.38926 21.229668 18.25993C19.826484 15.161169999999998 17.463044 12.59654 14.489028 10.94548L13.881428 10.611672C11.759912 9.444646 11.697292 6.418612 13.768711999999999 5.164847999999999C14.730084 4.582916 15.928792000000001 4.558116 16.913414 5.099748L17.52554 5.436532C21.689832000000003 7.747892 24.998958000000002 11.338994 26.962808 15.678002C27.893303999999997 17.75804 26.37604 20.107406 24.097354 20.11497Z" fill="#ff6242" stroke="#45413c" stroke-linecap="round" stroke-linejoin="round" stroke-width="2"></path><path d="M45.031034000000005 9.978528C46.131472 8.797924 45.54117 6.868732 43.968478 6.506094C43.220819999999996 6.333672 42.438628 6.583469999999999 41.929297999999996 7.157342L41.501746 7.630649999999999C40.482527999999995 8.756694 39.601198000000004 10.000166 38.876294 11.334778C38.677584 11.702686 38.235152 11.863824000000001 37.84635 11.709816C36.806424 11.29485 35.693834 11.092606 34.574362 11.114987999999999C32.572258 11.156962 32.22419 11.170478 31.87916 11.162976C31.542872 11.15628 31.24428 10.946162000000001 31.124496 10.631884C30.259534000000002 8.367024 28.97942 6.283514 27.349873999999996 4.488366L26.918602 4.014314000000001C25.847242 2.807236 23.87093 3.2125299999999997 23.361228 4.743930000000001C23.118869999999998 5.471933999999999 23.293648 6.274214 23.816804 6.835500000000001L24.248882000000002 7.311102C24.851522 7.97475 25.392596 8.691842 25.865408000000002 9.45345C26.191156 9.97332 25.855736 10.654266 25.245036 10.712918C22.35937 11.001900000000001 19.825864 12.756499999999999 18.540418 15.356160000000001C17.40991 17.643774 17.086828 20.246596 17.62381 22.741166L18.115098 25.02599C19.63571 32.092501999999996 23.526458 38.426732 29.141922 42.977966C30.208198000000003 43.843052 31.470208 44.433602 32.81753 44.698032C35.460713999999996 45.219142 38.193612 44.443336 40.168746000000006 42.611174L41.783784 41.110898C43.156092 39.838224000000004 44.065136 38.144446 44.367200000000004 36.297404C45.198806000000005 31.207886 45.080819999999996 26.00838 44.019132 20.961827999999997L43.427279999999996 18.145912C43.198499999999996 17.064074 42.75799 16.038221999999998 42.131046 15.12738C41.965692 14.88682 41.939714 14.576758 42.062784 14.312018C42.709816 12.903564000000001 43.56864 11.602556 44.609496 10.45413Z" fill="#ffa694" stroke-width="2"></path><path d="M17.408483999999998 21.2319C18.72648 15.358454 23.547538 15.190371999999998 28.142791999999996 13.655624000000001C28.44281 13.555866 28.48032 13.536397999999998 29.9708 12.940019999999999L35.78578 12.246922C38.13062 12.721346 40.19081799999999 14.108037999999999 41.512968 16.101772L43.715332000000004 19.56286L44.009398 20.960340000000002C45.071086 26.006891999999997 45.189071999999996 31.206398 44.357466 36.295854S33.573682 48.822954 21.758466 34.393570000000004C19.636392 31.801164 18.82475 28.343796 18.10989 25.02227L17.61854 22.737384000000002C17.511589999999998 22.241322 17.43812 21.738563999999997 17.39875 21.232644" fill="#ff6242" stroke-width="2"></path><path d="M45.031034000000005 9.978528C46.131472 8.797924 45.54117 6.868732 43.968478 6.506094C43.220819999999996 6.333672 42.438628 6.583469999999999 41.929297999999996 7.157342L41.501746 7.630649999999999C40.482527999999995 8.756694 39.601198000000004 10.000166 38.876294 11.334778C38.677584 11.702686 38.235152 11.863824000000001 37.84635 11.709816C36.806424 11.29485 35.693834 11.092606 34.574362 11.114987999999999C32.572258 11.156962 32.22419 11.170478 31.87916 11.162976C31.542872 11.15628 31.24428 10.946162000000001 31.124496 10.631884C30.259534000000002 8.367024 28.97942 6.283514 27.349873999999996 4.488366L26.918602 4.014314000000001C25.847242 2.807236 23.87093 3.2125299999999997 23.361228 4.743930000000001C23.118869999999998 5.471933999999999 23.293648 6.274214 23.816804 6.835500000000001L24.248882000000002 7.311102C24.851522 7.97475 25.392596 8.691842 25.865408000000002 9.45345C26.191156 9.97332 25.855736 10.654266 25.245036 10.712918C22.35937 11.001900000000001 19.825864 12.756499999999999 18.540418 15.356160000000001C17.40991 17.643774 17.086828 20.246596 17.62381 22.741166L18.115098 25.02599C19.63571 32.092501999999996 23.526458 38.426732 29.141922 42.977966C30.208198000000003 43.843052 31.470208 44.433602 32.81753 44.698032H32.81753C35.460713999999996 45.219142 38.193612 44.443336 40.168746000000006 42.611174L41.783784 41.110898C43.156092 39.838224000000004 44.065136 38.144446 44.367200000000004 36.297404C45.198806000000005 31.207886 45.080819999999996 26.00838 44.019132 20.961827999999997L43.427279999999996 18.145912C43.198499999999996 17.064074 42.75799 16.038221999999998 42.131046 15.12738C41.965692 14.88682 41.939714 14.576758 42.062784 14.312018C42.709816 12.903564000000001 43.56864 11.602556 44.609496 10.45413Z" fill="none" stroke="#45413c" stroke-linecap="round" stroke-linejoin="round" stroke-width="2"></path><path d="M48.421628 35.088156C47.410593999999996 30.031063999999997 45.471296 25.205108 42.701941999999995 20.854568L41.157398 18.427205999999998C40.001408 16.659028 38.2509 15.36298 36.222384 14.77336C35.78237 14.641981999999999 35.534184 14.176734 35.670274 13.738146C36.413902 11.305266000000001 37.572124 9.019015999999999 39.093852 6.98027L39.6459 6.245941999999999C40.922666 4.542492 39.87654 2.0957239999999997 37.76296 1.841772C36.781996 1.72391 35.81275 2.138318 35.220216 2.92888L34.668106 3.6662459999999997C32.20187 6.974008 30.503937999999998 10.789921999999999 29.697814 14.836352C29.643316 15.110330000000001 29.453906000000003 15.338118 29.194436 15.441719999999998C27.538912 16.14263 25.82207 16.688788 24.065858 17.073188000000002C20.232026 17.621019999999998 17.266752 20.714138 16.881173999999998 24.567686000000002C16.629206 27.106028 17.243068 29.655034 18.62294 31.800358L19.886934 33.765696C23.79529 39.84585 29.664706 44.407252 36.521658 46.693316C37.824092 47.127192 39.212892000000004 47.236126 40.567034 47.010632C43.223238 46.568014000000005 45.507256 44.881056 46.711296 42.472418L47.696228 40.502554C48.53329 38.828616000000004 48.788543999999995 36.923418 48.421628 35.088156Z" fill="#ff6242" stroke-width="2"></path><path d="M48.514627999999995 35.654526C48.421628 35.871278000000004 48.35783 36.097826 48.251314 36.310114L47.266444 38.276196C45.39441600000001 42.024282 41.050696 43.824762 37.076 42.500131999999994C30.21942 40.214626 24.350004 35.654092 20.441276 29.574744L19.177282 27.609468C18.161784 26.0276 17.556974 24.217385999999998 17.417536000000002 22.342816C17.139094 23.056436 16.959356 23.804714 16.883406 24.566941999999997C16.630632 27.105284 17.243688 29.654538000000002 18.62294 31.800358L19.886934 33.765696C23.79529 39.84585 29.664706 44.407252 36.521658 46.693316C37.824092 47.127192 39.212892000000004 47.236126 40.567096 47.010632C43.2233 46.568014000000005 45.507256 44.881056 46.711358000000004 42.472418L47.696228 40.502554C48.445746 39.004076 48.730698 37.31594 48.514627999999995 35.654526Z" fill="#e04122" stroke-width="2"></path><path d="M18.429438 31.489056C24.797953999999997 29.646044 23.118436 30.814 27.865218 24.882026" fill="none" stroke="#45413c" stroke-linecap="round" stroke-linejoin="round" stroke-width="2"></path><path d="M25.49936 27.839736L26.94706 30.735197999999997" fill="none" stroke="#45413c" stroke-linecap="round" stroke-linejoin="round" stroke-width="2"></path><path d="M37.814854000000004 15.415432000000001L36.88845 16.960720000000002C35.999494 18.440846 36.043328 20.300846 37.00098 21.737448" fill="none" stroke="#45413c" stroke-linecap="round" stroke-linejoin="round" stroke-width="2"></path><path d="M46.733864000000004 29.07521H43.133276C41.948208 29.075272000000002 40.811623999999995 29.546162 39.973755999999995 30.384154000000002L38.145686 32.212224" fill="none" stroke="#45413c" stroke-linecap="round" stroke-linejoin="round" stroke-width="2"></path><path d="M45.374638 44.410724L42.654697999999996 43.86686C41.420898 43.619665999999995 40.348608 42.863576 39.701451999999996 41.784528L38.365476 39.55817" fill="none" stroke="#45413c" stroke-linecap="round" stroke-linejoin="round" stroke-width="2"></path><path d="M24.416158 39.315129999999996L28.913886 38.509502" fill="none" stroke="#45413c" stroke-linecap="round" stroke-linejoin="round" stroke-width="2"></path><path d="M48.421628 35.088156C47.410593999999996 30.031063999999997 45.471296 25.205108 42.701941999999995 20.854568L41.157398 18.427205999999998C40.001408 16.659028 38.2509 15.36298 36.222384 14.77336C35.78237 14.641981999999999 35.534184 14.176734 35.670274 13.738146C36.413902 11.305266000000001 37.572124 9.019015999999999 39.093852 6.98027L39.6459 6.245941999999999C40.922666 4.542492 39.87654 2.0957239999999997 37.76296 1.841772C36.781996 1.72391 35.81275 2.138318 35.220216 2.92888L34.668106 3.6662459999999997C32.20187 6.974008 30.503937999999998 10.789921999999999 29.697814 14.836352C29.643316 15.110330000000001 29.453906000000003 15.338118 29.194436 15.441719999999998C27.538912 16.14263 25.82207 16.688788 24.065858 17.073188000000002C20.232026 17.621019999999998 17.266752 20.714138 16.881173999999998 24.567686000000002C16.629206 27.106028 17.243068 29.655034 18.62294 31.800358L19.886934 33.765696C23.79529 39.84585 29.664706 44.407252 36.521658 46.693316H36.521658C37.824092 47.127192 39.212892000000004 47.236126 40.567034 47.010632H40.567034C43.223238 46.568014000000005 45.507256 44.881056 46.711296 42.472418L47.696228 40.502554C48.53329 38.828616000000004 48.788543999999995 36.923418 48.421628 35.088156Z" fill="none" stroke="#45413c" stroke-linecap="round" stroke-linejoin="round" stroke-width="2"></path></svg>