<svg xmlns="http://www.w3.org/2000/svg" fill="none" viewBox="-1 -1 64 64" id="Intestine--Streamline-Ux.svg" height="64" width="64"><desc>Intestine Streamline Illustration: https://streamlinehq.com</desc><path fill="#daedf7" stroke="#daedf7" stroke-miterlimit="10" d="M31 61.004962C47.571298000000006 61.004962 61.004962 47.571298000000006 61.004962 31S47.571298000000006 0.995038 31 0.995038S0.995038 14.428702 0.995038 31S14.428702 61.004962 31 61.004962Z" stroke-width="2"></path><path fill="#45413c" d="M31.756895999999998 57.884378000000005C37.629288 57.884378000000005 42.389896 57.355456 42.389896 56.702906C42.389896 56.05041799999999 37.629288 55.521434000000006 31.756895999999998 55.521434000000006C25.884442 55.521434000000006 21.123896 56.05041799999999 21.123896 56.702906C21.123896 57.355456 25.884442 57.884378000000005 31.756895999999998 57.884378000000005Z" opacity=".15" stroke-width="2"></path><path fill="#ffa694" d="M52.993632000000005 22.57978C52.893936 22.444557999999997 52.840058 22.280878 52.840058 22.112858C52.840058 21.944838 52.893936 21.781157999999998 52.993632000000005 21.645874C53.766833999999996 20.664972 54.171631999999995 19.443882 54.137532 18.195326C54.13747 16.97343 53.756789999999995 15.781913999999999 53.048316 14.786442C52.339842 13.791032 51.338851999999996 13.041018 50.184412 12.640684C50.063387999999996 11.532248000000001 49.62821 10.481472 48.930028 9.612108C48.231846000000004 8.742806 47.299800000000005 8.091000000000001 46.24363 7.733569999999999C45.187522 7.37614 44.051247999999994 7.327904 42.968604 7.5945659999999995C41.885960000000004 7.861228 40.90208200000001 8.43169 40.132723999999996 9.238868C40.042886 9.332735999999999 39.931286 9.402982 39.80772 9.443282C39.684154 9.48352 39.552528 9.492696 39.424622 9.46988C39.109662 9.411662 38.790114 9.38153 38.46976 9.379856C37.586507999999995 9.379918 36.714912 9.580302 35.920258 9.965755999999999C35.125604 10.351272 34.428724 10.911938000000001 33.881946 11.605469999999999C33.773632 11.741932 33.623158 11.83859 33.454022 11.880378C33.284948 11.922227999999999 33.106698 11.906789999999999 32.947296 11.836544C32.220408 11.508688 31.432078 11.33918 30.634696 11.33918C29.837314 11.33918 29.048984 11.508688 28.322034000000002 11.836544C28.162755999999998 11.907037999999998 27.984444 11.922600000000001 27.815184 11.880874C27.646048 11.838961999999999 27.495574 11.742118 27.387384 11.605469999999999C26.840544 10.911752 26.14354 10.351086 25.348823999999997 9.965632C24.554046 9.580116 23.682264 9.379856 22.798887999999998 9.379856C22.478844 9.381592 22.159482 9.411662 21.84477 9.46988C21.716677999999998 9.49282 21.58499 9.483768 21.4613 9.443468000000001C21.33761 9.403106 21.225824 9.332798 21.135862 9.238868C20.593672 8.665987999999999 19.940626 8.209358 19.216404 7.896878C18.492244 7.58446 17.711973999999998 7.4226399999999995 16.92321 7.421276C15.416362000000001 7.420718 13.96674 7.998992 12.874114 9.036624C11.781426000000002 10.074256 11.129124 11.492071999999999 11.051996 12.996936000000002C11.041208 13.187958 10.961228 13.368502000000001 10.826936000000002 13.504778C9.700334 14.808575999999999 9.080644 16.474392 9.081387999999999 18.197558C9.082566 19.440720000000002 9.483644 20.650526 10.22535 21.648106C10.324983999999999 21.783452 10.378675999999999 21.94707 10.378675999999999 22.11509C10.378675999999999 22.28311 10.324983999999999 22.446728 10.22535 22.582012000000002C9.48259 23.579096 9.081387999999999 24.789274 9.081387999999999 26.032622C9.081387999999999 27.275908 9.48259 28.486086 10.22535 29.48317C10.325046 29.618392 10.378924000000001 29.782072 10.378924000000001 29.950153999999998C10.378924000000001 30.118174 10.325046 30.281854000000003 10.22535 30.417076C9.483644 31.414655999999997 9.082566 32.624462 9.081387999999999 33.867624C9.083 34.994350000000004 9.409863999999999 36.096648 10.022796 37.042086C10.635727999999999 37.987524 11.508564 38.735864 12.536461999999998 39.197268C12.674349999999999 39.259888000000004 12.791406 39.360886 12.873432 39.488172S12.999168 39.7637 12.999292 39.915166V42.68235C13.009398000000001 43.195276 13.220136 43.683774 13.586431999999999 44.04294C13.952728 44.402167999999996 14.445256 44.603358 14.958244 44.603358S15.963822 44.402167999999996 16.330118 44.04294C16.696352 43.683774 16.907152 43.195276 16.917196 42.68235V39.913616000000005C16.917196 39.762274 16.960720000000002 39.614032 17.042683999999998 39.486746C17.124648 39.35946 17.241518 39.2584 17.379282 39.19578C18.40718 38.734376 19.280078 37.986036 19.892948 37.040597999999996C20.505879999999998 36.09516 20.832806 34.992862 20.834356 33.866136C20.833364000000003 32.622974 20.432286 31.413168000000002 19.690394 30.415588C19.590636 30.280179999999998 19.53682 30.116438 19.53682 29.948232S19.590636 29.616346000000004 19.690394 29.480938000000002C20.433216 28.483853999999997 20.834418000000003 27.273676000000002 20.834418000000003 26.030389999999997C20.834418000000003 24.787042000000003 20.433216 23.576864 19.690394 22.57978C19.590884 22.444309999999998 19.537192 22.280568 19.537192 22.112486C19.537192 21.944342000000002 19.590884 21.7806 19.690394 21.645129999999998C19.936472 21.311322 20.147147999999998 20.952838 20.319011999999997 20.575444H20.325026C21.06977 20.93244 21.883272 21.122780000000002 22.709049999999998 21.133134000000002C23.534828 21.143488 24.352918 20.973608000000002 25.106342 20.635460000000002C25.265743999999998 20.565213999999997 25.443932 20.549714 25.613006000000002 20.591502C25.782204 20.633352000000002 25.932678000000003 20.730072 26.040992000000003 20.866534C26.587522 21.560438 27.284278 22.121413999999998 28.078993999999998 22.507053999999997C28.873648 22.892756 29.745430000000002 23.09314 30.628744 23.09314C31.512058 23.09314 32.38384 22.892756 33.178432 22.507053999999997C33.973148 22.121413999999998 34.669903999999995 21.560438 35.216496 20.866534C35.32481 20.730072 35.475284 20.633352000000002 35.64442 20.591502C35.813494 20.549714 35.991744000000004 20.565213999999997 36.151146000000004 20.635460000000002C36.878654 20.961456 37.666488 21.13115 38.463746 21.133567999999997C39.987272 21.130654 41.448488000000005 20.528386 42.531690000000005 19.457026C42.709692000000004 20.247898 43.048708000000005 20.99351 43.527843999999995 21.647423999999997C43.627106 21.782584 43.680612 21.945892 43.680612 22.113602C43.680612 22.281312000000003 43.627044000000005 22.44462 43.527843999999995 22.57978C42.785084 23.576864 42.38388199999999 24.787042000000003 42.38388199999999 26.030389999999997C42.38388199999999 27.273676000000002 42.785084 28.483853999999997 43.527843999999995 29.480938000000002C43.62754 29.61616 43.681356 29.779839999999997 43.681356 29.947922C43.681356 30.115942 43.62754 30.279621999999996 43.527843999999995 30.414844C42.786138 31.412423999999998 42.384997999999996 32.62223 42.38388199999999 33.865392C42.38475 34.493018 42.489158 35.116304 42.692952 35.709953999999996C42.751542 35.881508 42.749062 36.068004 42.685884 36.238008C42.62276799999999 36.407888 42.502798 36.550736 42.346372 36.642372C41.559281999999996 37.10421 40.890612000000004 37.743182 40.39362 38.50851C39.896566 39.273962000000004 39.584892 40.14469 39.483149999999995 41.051564C39.463682 41.230247999999996 39.383578 41.396904 39.256229999999995 41.523818C39.128944 41.650732000000005 38.96204 41.730216 38.783294 41.749188000000004C36.798488 41.957012 34.170804 42.641864 32.707294000000005 44.714462C32.450056 45.079456 32.298094 45.508123999999995 32.2679 45.953717999999995C32.237644 46.39925 32.330334 46.844471999999996 32.535925999999996 47.240961999999996C32.741518 47.63739 33.052014 47.969710000000006 33.433562 48.201713999999996C33.815172 48.433718 34.253077999999995 48.556478000000006 34.699602 48.556602C35.127588 48.567699999999995 35.549126 48.45052 35.910028000000004 48.220252C36.27093 47.98986 36.554766 47.656982 36.724956 47.264088C36.866749999999996 46.898039999999995 37.100056 46.597277999999996 37.484083999999996 46.597277999999996H42.077850000000005C42.795624 47.07319 43.608878 47.38629 44.46051 47.514506000000004C45.312203999999994 47.64266 46.181630000000006 47.582767999999994 47.007656 47.339107999999996C47.759964000000004 47.11194 48.459014 46.736157999999996 49.063514 46.234144C49.668138 45.73213 50.165874 45.11399 50.527458 44.416304000000004C50.88898 43.718494 51.107034 42.955397999999995 51.168538 42.171966C51.230104 41.388534 51.133942000000005 40.600762 50.88581799999999 39.85515C50.82729 39.68372 50.82977 39.497347999999995 50.892948000000004 39.32753C50.956064000000005 39.157773999999996 51.076034 39.014988 51.232336000000004 38.923476C52.115277999999996 38.40683 52.847622 37.668162 53.356642 36.780756C53.86559999999999 35.893474 54.133564 34.88833 54.133812 33.865392C54.132324 32.622292 53.731308 31.412671999999997 52.989912000000004 30.414844C52.890278 30.279497999999997 52.836586 30.115942 52.836586 29.947922C52.836586 29.779839999999997 52.890278 29.616284 52.989912000000004 29.480938000000002C53.732672 28.483853999999997 54.133936 27.273676000000002 54.133936 26.030389999999997C54.133936 24.787042000000003 53.732672 23.576864 52.989912000000004 22.57978H52.993632000000005Z" stroke-width="2"></path><path fill="#ffcabf" d="M44.899036 47.56268C45.654878 47.424915999999996 46.372404 47.127067999999994 47.003688 46.689161999999996C47.63491 46.251194 48.165071999999995 45.683274 48.558772 45.023532C48.95241 44.363851999999994 49.200410000000005 43.627478 49.286094000000006 42.86400999999999C49.371778 42.100542 49.293099999999995 41.32765 49.055454000000005 40.59698C48.999281999999994 40.427162 49.002753999999996 40.243332 49.06525 40.075683999999995C49.127622 39.908098 49.245422 39.7668 49.399058 39.675102C50.200531999999995 39.196958 50.864242000000004 38.51905 51.325274 37.70747C51.786244 36.895952 52.028726 35.978724 52.028974 35.045376C52.027857999999995 33.91586 51.667699999999996 32.81598 51.00058 31.904580000000003C50.902868 31.770163999999998 50.850291999999996 31.608282 50.850291999999996 31.442121999999998C50.850291999999996 31.276024 50.902868 31.114079999999998 51.00058 30.979664C51.668692 30.068822 52.028974 28.96857 52.028974 27.838929999999998C52.028974 26.709290000000003 51.668692 25.609038 51.00058 24.698134000000003C50.902868 24.563717999999998 50.850291999999996 24.401836 50.850291999999996 24.235675999999998C50.850291999999996 24.069516 50.902868 23.907696 51.00058 23.773218C51.667699999999996 22.861942 52.027857999999995 21.762 52.028974 20.632483999999998C51.986380000000004 19.579538 51.663236 18.557034 51.09296 17.670868S49.726108 16.066866 48.785444 15.591636C48.665411999999996 15.543028000000001 48.559267999999996 15.465528 48.476312 15.366079999999998C48.393418 15.266694 48.336192000000004 15.148336 48.309842 15.021546C48.105552 14.026136000000001 47.623439999999995 13.10897 46.919368 12.376254C46.215296 11.643538000000001 45.31797 11.125218 44.33148799999999 10.88131C43.345068 10.637464 42.30973 10.67795 41.345258 10.998242C40.38091 11.318472 39.526984 11.905364 38.882308 12.690904C37.891114 12.436269999999999 36.84722 12.475330000000001 35.87785 12.803496S34.055484 13.734798 33.422897999999996 14.539247999999999C33.314274 14.67261 33.16504 14.766726 32.997888 14.807398C32.830736 14.84807 32.655028 14.83288 32.497238 14.764246000000002C31.839727999999997 14.473466 31.12865 14.323178 30.409636000000003 14.323178C29.690683999999997 14.323178 28.979606 14.473466 28.322096 14.764246000000002C28.164368 14.833127999999999 27.988474 14.848442 27.82126 14.807770000000001C27.654169999999997 14.767098 27.504873999999997 14.672796 27.396436 14.539247999999999C26.892996 13.910816 26.25483 13.403594 25.529058 13.054968C24.803224 12.706342 24.008384 12.525302000000002 23.203252 12.525115999999999C22.918796 12.525302000000002 22.634960000000003 12.550412 22.354843999999996 12.600136000000001C22.228364000000003 12.622580000000001 22.098288 12.613776 21.975962 12.574654C21.853512 12.535407999999999 21.742656 12.466898 21.652693999999997 12.375138C21.154647999999998 11.854586 20.556472 11.440054 19.894126 11.156466C19.231842 10.87294 18.51909 10.726124 17.798588 10.724822000000001C16.417476 10.723892000000001 15.088444 11.252008 14.084726000000002 12.200794C13.08107 13.149518 12.478926000000001 14.446744 12.402232 15.825686000000001C12.391877999999998 16.01398 12.31444 16.192292 12.183929999999998 16.328257999999998C11.156652 17.526222 10.592018 19.052166 10.592141999999999 20.630190000000002C10.593257999999999 21.759768 10.953415999999999 22.859647999999996 11.620598 23.770986C11.718248 23.905402 11.770824 24.067346 11.770824 24.233444C11.770824 24.399604 11.718248 24.561486 11.620598 24.695901999999997C10.952423999999999 25.606744 10.592141999999999 26.707057999999996 10.592141999999999 27.836636C10.592141999999999 28.966338 10.952423999999999 30.066527999999998 11.620598 30.977432C11.718248 31.111848 11.770824 31.273792 11.770824 31.43989C11.770824 31.60605 11.718248 31.767870000000002 11.620598 31.902347999999996C10.804306 33.016488 10.453323999999999 34.40442 10.641866 35.77276C10.83047 37.140976 11.54378 38.382278 12.631011999999998 39.234034C11.82092 38.890243999999996 11.099364 38.367087999999995 10.520718 37.70406C9.94201 37.041032 9.52134 36.255368 9.290265999999999 35.406216C9.059192 34.557064000000004 9.023728 33.666558 9.186664 32.801719999999996C9.349476000000001 31.936882 9.706472 31.120217999999998 10.23062 30.413356C10.330192 30.278071999999998 10.383946 30.114392 10.383946 29.946372C10.383946 29.778352 10.330192 29.614734000000002 10.23062 29.47945C9.487860000000001 28.482366000000003 9.086658 27.27225 9.086658 26.02884C9.086658 24.785554 9.487860000000001 23.575438000000002 10.23062 22.578292C10.33013 22.442821999999996 10.383884 22.279142 10.383884 22.110936C10.383884 21.942854 10.33013 21.779112 10.23062 21.643642C9.488666 20.646123999999997 9.087278 19.436318 9.085914 18.193094C9.08517 16.46999 9.70486 14.804174 10.831461999999998 13.500314C10.965753999999999 13.363976 11.045672 13.183494 11.05646 12.992472C11.134332 11.488476 11.786634 10.071776000000002 12.878764 9.034826C13.970894 7.997813999999999 15.419400000000001 7.419726 16.925442 7.419788C17.714206 7.421152 18.494476 7.582972000000001 19.218636 7.895452000000001C19.942919999999997 8.20787 20.595965999999997 8.6645 21.138156000000002 9.237318C21.22818 9.331248 21.339903999999997 9.401494 21.463593999999997 9.441856C21.587222 9.482094 21.718972 9.49127 21.847002 9.468392C22.161962 9.409801999999999 22.48151 9.379732 22.801925999999998 9.378368C23.685054 9.37874 24.55665 9.579186 25.351304000000003 9.964578C26.145833999999997 10.350094 26.842776 10.910574 27.389678000000004 11.603982C27.497992 11.740444 27.648466 11.837226000000001 27.817602 11.878952C27.986676 11.92074 28.164926 11.905302 28.324327999999998 11.834994C29.051278000000003 11.507261999999999 29.839546000000002 11.337754 30.636928 11.337754C31.43431 11.337754 32.22264 11.507261999999999 32.94959 11.834994C33.10893 11.905736 33.287242 11.921360000000002 33.45644 11.879572C33.6257 11.837722 33.776174 11.740816 33.88424 11.603982C34.431142 10.910574 35.128022 10.350032 35.922614 9.964516C36.717206 9.579124 37.588802 9.378677999999999 38.471992 9.378368C38.792098 9.37967 39.11146 9.409801999999999 39.426172 9.468392C39.554202 9.491394 39.686014 9.482404 39.809703999999996 9.442042C39.933394 9.401742 40.04518 9.331434 40.135018 9.237318C40.677332 8.6645 41.330501999999996 8.20787 42.05491 7.89539C42.779194 7.582972000000001 43.559526 7.421152 44.348476 7.419788C45.793138 7.419788 47.187146 7.951872 48.264396 8.914484C49.341584000000005 9.877096 50.026436 11.202903999999998 50.188194 12.63839C51.342881999999996 13.038352 52.344305999999996 13.788366 53.053090000000005 14.783838C53.761812 15.779372 54.142739999999996 16.971011999999998 54.142802 18.193094C54.1415 19.436318 53.740111999999996 20.646123999999997 52.998158000000004 21.643642C52.898399999999995 21.779049999999998 52.844522 21.942791999999997 52.844522 22.110936S52.898399999999995 22.442946000000003 52.998158000000004 22.578292C53.740918 23.575438000000002 54.14212 24.785491999999998 54.14212 26.02884C54.14212 27.27225 53.740918 28.482366000000003 52.998158000000004 29.479388C52.898461999999995 29.614734000000002 52.844584 29.778352 52.844584 29.946372C52.844584 30.114454 52.898461999999995 30.278071999999998 52.998158000000004 30.413294C53.739554 31.411122 54.14057 32.620866 54.142058000000006 33.863904C54.141748 34.886904 53.873846 35.891986 53.364888 36.77933C52.855868 37.666612 52.123523999999996 38.405342 51.240582 38.921988C51.08459 39.01381 50.964929999999995 39.156534 50.901751999999995 39.32629C50.838698 39.495984 50.835907999999996 39.682232000000006 50.894064 39.8536C51.142188 40.599273999999994 51.23835 41.387108 51.176784 42.170539999999995C51.11528 42.95391 50.897164000000004 43.717068 50.535704 44.414754C50.17412 45.11244 49.676384 45.730642 49.07176 46.232656C48.46726 46.73467 47.76821 47.110389999999995 47.015902 47.33762C46.328694 47.53509 45.612407999999995 47.611225999999995 44.899036 47.56261799999999Z" stroke-width="2"></path><path fill="#ffcabf" d="M14.197256000000001 43.151876V40.627669999999995C14.197069999999998 40.48321 14.156026 40.341849999999994 14.078712 40.219772C14.00146 40.097818000000004 13.891162000000001 40.000168 13.760652 39.938354000000004L13.705906 39.911322C13.631506 39.87499 13.549108 39.858312 13.466462 39.862652000000004C13.383878 39.866991999999996 13.303711999999999 39.892288 13.233466 39.936122C13.163344 39.980079999999994 13.105497999999999 40.041088 13.065446 40.113566C13.025394 40.18592 13.004438 40.267326 13.004562 40.350158V42.680800000000005C13.004562 42.937976 13.055154 43.192672 13.153671999999998 43.430318C13.252066000000001 43.667902000000005 13.39634 43.883848 13.578186 44.065694C13.760094 44.24760199999999 13.975978 44.391814 14.213562 44.490207999999996C14.451208 44.588663999999994 14.705904 44.639379999999996 14.963142 44.639379999999996H14.981122C14.73926 44.473902 14.54148 44.251942 14.404893999999999 43.992782000000005C14.268246000000001 43.733498 14.197007999999999 43.444888 14.197256000000001 43.151876Z" stroke-width="2"></path><path stroke="#ff6242" stroke-linecap="round" stroke-linejoin="round" d="M15.212133999999999 36.742253999999996C14.758790000000001 36.049838 14.476875999999999 35.259276 14.389704 34.436226C14.302655999999999 33.613114 14.412768000000002 32.781074000000004 14.71105 32.008988C14.820356 31.789260000000002 14.889424 31.551737999999997 14.915092 31.307644C14.899963999999999 31.059086 14.836786 30.81586 14.729092 30.591234C14.062592 28.844445999999998 14.007102 26.923375999999998 14.57155 25.140876C14.609679999999999 25.021278000000002 14.618732000000001 24.894364 14.597962 24.77055C14.577254 24.646736 14.527282 24.52968 14.452262 24.428992C13.810872 23.520568 13.475266000000001 22.431476 13.49399 21.319568C13.512775999999999 20.20766 13.8849 19.130596 14.556546 18.244244000000002C14.646508 18.13128 14.703548 17.995624 14.721589999999999 17.852342C14.739507999999999 17.70906 14.717746 17.56367 14.658536 17.431858C14.459764 16.987752 14.395284 16.26167 15.269174 15.265516C15.63888 14.840816 16.099726 14.505147999999998 16.617364 14.28356C17.13494 14.061971999999999 17.695978 13.960168000000001 18.258380000000002 13.985774000000001C18.718481999999998 14.017704 19.166866 14.144866 19.575198 14.359262C19.983468000000002 14.573596 20.342757999999996 14.870452 20.630314000000002 15.230982C20.73218 15.361802 20.872734 15.457096 21.032012 15.5031C21.191228 15.549166 21.360984000000002 15.543709999999999 21.516976 15.487538C22.455408000000002 15.143004 23.487522 15.153543999999998 24.418823999999997 15.517235999999999C25.350001999999996 15.880866 26.116135999999997 16.5726 26.572765999999998 17.461866C26.620939999999997 17.553688 26.686784 17.635032 26.766454 17.701372C26.846123999999996 17.76765 26.938070000000003 17.817622 27.037083999999997 17.848374C27.136097999999997 17.879064 27.240257999999997 17.890038 27.343426 17.880428000000002C27.446656 17.87088 27.547034 17.841058 27.638732 17.792636C28.261398 17.478792000000002 28.955488 17.333464 29.651748 17.37116C30.34807 17.408732 31.022381999999997 17.628088 31.607599999999998 18.007156000000002C31.779278 18.121794 31.989086 18.164388 32.19195 18.126009999999997C32.39469 18.08757 32.574366 17.971072 32.69229 17.801626C33.023742 17.360868 33.470824 17.020488 33.983998 16.818244C35.190146 16.325716 36.53846 16.310154 37.755644 16.774720000000002C37.925214 16.839634 38.111895999999994 16.843912 38.284318 16.786934000000002C38.456678 16.729955999999998 38.604052 16.61507 38.701516 16.46193C39.111956 15.822834 39.667848 15.289696 40.323497999999994 14.906164C40.97921 14.522632 41.716328000000004 14.299556 42.47465 14.255040000000001C42.76357 14.233588 43.053295999999996 14.285172000000001 43.317044 14.405080000000002C43.420646 14.45933 43.534912000000006 14.48971 43.651720000000005 14.494112000000001C43.768527999999996 14.498451999999999 43.884778 14.476814 43.992162 14.430561999999998C44.205194 14.368127999999999 44.429076 14.351698 44.648928 14.382512C44.868904 14.413264 45.07964200000001 14.490516 45.267378 14.609122C46.04417599999999 15.090676 46.650288 15.803986 47.000154 16.648302C47.350082 17.49268 47.426156 18.425532 47.21765 19.315418C47.182806 19.455662 47.187084 19.602788 47.23005 19.740738C47.273016 19.87875 47.353058 20.002192 47.461434000000004 20.097796C47.922838 20.540352000000002 48.272332 21.086262 48.481024 21.690576C48.689716000000004 22.29489 48.751592 22.940124 48.66163 23.573082C48.462548000000005 24.811842000000002 47.916328 25.968762 47.086396 26.909674000000003C46.982732 27.034975999999997 46.920484 27.189294 46.908083999999995 27.351424C46.895808 27.513554 46.933876 27.675498 47.017390000000006 27.81506C47.616744 28.862922 47.854823999999994 30.078742 47.695049999999995 31.275280000000002C47.535214 32.471818 46.986328 33.58261 46.13296 34.436412C46.50806 34.086856 46.920607999999994 36.181154 46.940138000000005 36.386684C47.122418 38.342287999999996 46.102208000000005 43.25709 43.14301 42.25114000000001" stroke-width="2"></path><path stroke="#45413c" stroke-linecap="round" stroke-linejoin="round" d="M52.993632000000005 22.57978C52.893936 22.444557999999997 52.840058 22.280878 52.840058 22.112858C52.840058 21.944838 52.893936 21.781157999999998 52.993632000000005 21.645874C53.766833999999996 20.664972 54.171631999999995 19.443882 54.137532 18.195326C54.137532 16.973368 53.756789999999995 15.781728 53.04812999999999 14.786256C52.339532 13.790659999999999 51.338232000000005 13.04077 50.183668 12.640622H50.183668C50.062644 11.532248000000001 49.627466000000005 10.481472 48.929283999999996 9.612108C48.231102 8.742806 47.29905599999999 8.091000000000001 46.242886 7.733569999999999C45.186778000000004 7.37614 44.050504 7.327904 42.967859999999995 7.5945659999999995C41.885216 7.861228 40.901337999999996 8.43169 40.13198 9.238868C40.042142000000005 9.332735999999999 39.930542 9.402982 39.806976000000006 9.44322C39.683409999999995 9.48352 39.551784 9.492696 39.423878 9.46988C39.108917999999996 9.411662 38.78937 9.38153 38.468954000000004 9.379856C37.585764 9.379918 36.714168 9.580302 35.919514 9.965755999999999C35.12486 10.351272 34.427980000000005 10.911938000000001 33.881202 11.605469999999999C33.772888 11.741932 33.622414 11.83859 33.453278 11.880378C33.284203999999995 11.922227999999999 33.105954000000004 11.906789999999999 32.946552000000004 11.836482C32.219602 11.508688 31.431334 11.33918 30.633951999999997 11.33918C29.83657 11.33918 29.048239999999996 11.508688 28.321289999999998 11.836482C28.162012 11.907037999999998 27.9837 11.922600000000001 27.81444 11.880812C27.645304 11.838961999999999 27.49483 11.742118 27.386639999999996 11.605469999999999C26.8398 10.911752 26.142795999999997 10.351086 25.34808 9.965632C24.553302 9.580116 23.68152 9.379856 22.798144 9.379856C22.4781 9.381592 22.158738 9.411662 21.844026 9.46988C21.715934 9.49282 21.584246 9.483768 21.460555999999997 9.443468000000001C21.336865999999997 9.403106 21.225080000000002 9.332798 21.135118000000002 9.238806C20.592927999999997 8.665987999999999 19.939881999999997 8.209358 19.21566 7.896878C18.4915 7.58446 17.71123 7.4226399999999995 16.922466 7.421276C15.41568 7.4208419999999995 13.966368 7.999178 12.873804 9.03681C11.781301999999998 10.074442 11.129124 11.492195999999998 11.051996 12.996936000000002C11.041208 13.187958 10.961228 13.368502000000001 10.826936000000002 13.504778C9.700334 14.808575999999999 9.080644 16.474392 9.081387999999999 18.197558C9.082504 19.440720000000002 9.483644 20.650526 10.22535 21.648106C10.324983999999999 21.783452 10.378675999999999 21.94707 10.378675999999999 22.11509C10.378675999999999 22.28311 10.324983999999999 22.446728 10.22535 22.582012000000002C9.48259 23.579096 9.081387999999999 24.789274 9.081387999999999 26.032622C9.081387999999999 27.275908 9.48259 28.486086 10.22535 29.48317C10.325046 29.618392 10.378924000000001 29.782072 10.378924000000001 29.950092C10.378924000000001 30.118174 10.325046 30.281854000000003 10.22535 30.417076C9.483644 31.414655999999997 9.082504 32.624462 9.081387999999999 33.867624C9.083 34.994350000000004 9.409863999999999 36.096648 10.022796 37.042086C10.635727999999999 37.987524 11.508564 38.735864 12.536461999999998 39.197268C12.674349999999999 39.259888000000004 12.791406 39.360886 12.873432 39.488172S12.999168 39.7637 12.999292 39.915166V42.68235C13.009336000000001 43.195276 13.220136 43.683774 13.586431999999999 44.04294C13.952728 44.402167999999996 14.445256 44.603358 14.958244 44.603358S15.963822 44.402167999999996 16.330056 44.04294C16.696352 43.683774 16.907152 43.195276 16.917196 42.68235V39.913616000000005C16.917196 39.762274 16.960720000000002 39.614032 17.042683999999998 39.486746C17.124586 39.35946 17.241456 39.2584 17.379282 39.19578C18.40718 38.734376 19.280078 37.986036 19.892948 37.040597999999996C20.505879999999998 36.09516 20.832743999999998 34.992799999999995 20.834356 33.866136C20.833364000000003 32.622974 20.432286 31.413168000000002 19.690394 30.415588C19.590636 30.280179999999998 19.53682 30.116438 19.53682 29.948232S19.590636 29.616346000000004 19.690394 29.480938000000002C20.433216 28.483853999999997 20.834418000000003 27.273676000000002 20.834418000000003 26.030328C20.834418000000003 24.787042000000003 20.433216 23.576864 19.690394 22.57978C19.590884 22.444309999999998 19.537192 22.280568 19.537192 22.112486C19.537192 21.944342000000002 19.590884 21.7806 19.690394 21.645129999999998C19.936472 21.311322 20.147147999999998 20.952838 20.319011999999997 20.575444H20.325026C21.06977 20.93244 21.883272 21.122780000000002 22.709049999999998 21.133134000000002C23.534828 21.143488 24.352856 20.973608000000002 25.106279999999998 20.635460000000002C25.265682 20.565213999999997 25.443932 20.549714 25.613006000000002 20.591502C25.782142 20.633352000000002 25.932616 20.730072 26.04093 20.866534C26.587522 21.560438 27.284278 22.121413999999998 28.078993999999998 22.507053999999997C28.873648 22.892756 29.745430000000002 23.093078 30.628681999999998 23.093078C31.512058 23.093078 32.38384 22.892756 33.178432 22.507053999999997C33.973148 22.121413999999998 34.669903999999995 21.560438 35.216434 20.866534C35.32481 20.730072 35.475284 20.633352000000002 35.64442 20.591502C35.813494 20.549714 35.991682 20.565213999999997 36.151084 20.635460000000002C36.878654 20.961456 37.666488 21.13115 38.463746 21.133567999999997C39.987272 21.130654 41.448488000000005 20.528386 42.531690000000005 19.457026C42.709692000000004 20.247898 43.048708000000005 20.99351 43.527843999999995 21.647423999999997C43.627044000000005 21.782584 43.680612 21.945892 43.680612 22.113602C43.680612 22.281312000000003 43.627044000000005 22.44462 43.527843999999995 22.57978C42.785084 23.576864 42.38388199999999 24.787042000000003 42.38388199999999 26.030389999999997C42.38388199999999 27.273676000000002 42.785084 28.483853999999997 43.527843999999995 29.480938000000002C43.62754 29.61616 43.681356 29.779839999999997 43.681356 29.94786C43.681356 30.115942 43.62754 30.279621999999996 43.527843999999995 30.414844C42.786076 31.412423999999998 42.384997999999996 32.62223 42.38388199999999 33.865392C42.384688 34.493018 42.489158 35.116304 42.692952 35.709953999999996C42.751542 35.881508 42.749062 36.068004 42.685884 36.237946C42.622706 36.407888 42.502798 36.550674 42.346372 36.642372C41.559281999999996 37.10421 40.890612000000004 37.743182 40.39362 38.50851C39.896566 39.273962000000004 39.584892 40.14469 39.483149999999995 41.051564C39.463682 41.230247999999996 39.383578 41.396842 39.256229999999995 41.523818C39.128944 41.650732000000005 38.96204 41.730216 38.783294 41.749188000000004C36.798488 41.957012 34.170804 42.641864 32.707294000000005 44.714462C32.450056 45.079456 32.298094 45.508123999999995 32.2679 45.953717999999995C32.237644 46.39925 32.330334 46.844471999999996 32.535864000000004 47.240961999999996C32.741518 47.63739 33.051952 47.969710000000006 33.433562 48.201713999999996C33.815172 48.433718 34.253077999999995 48.556478000000006 34.699602 48.556602C35.127588 48.567699999999995 35.549126 48.45052 35.910028000000004 48.22019C36.27093 47.98986 36.554766 47.65692 36.724956 47.264088C36.866749999999996 46.898039999999995 37.099994 46.597277999999996 37.484083999999996 46.597277999999996H41.849070000000005C41.994212000000005 46.597402 42.13644 46.637702 42.260130000000004 46.713528C42.963892 47.143497999999994 43.749928000000004 47.42132 44.567646 47.529076C45.385302 47.636832000000005 46.216474 47.572104 47.007656 47.339107999999996C47.759964000000004 47.11194 48.459014 46.736157999999996 49.063514 46.234144C49.668138 45.73213 50.165874 45.113927999999994 50.527458 44.416242C50.888918000000004 43.718494 51.107034 42.955397999999995 51.168538 42.171966C51.230104 41.388534 51.133942000000005 40.600762 50.88581799999999 39.85515C50.82729 39.68372 50.82977 39.497347999999995 50.892948000000004 39.32753C50.956064000000005 39.157773999999996 51.076034 39.014988 51.232336000000004 38.923476C52.115216 38.40683 52.847622 37.668162 53.356642 36.780756C53.86559999999999 35.893474 54.133502 34.88833 54.133812 33.865392C54.132324 32.622292 53.731308 31.412671999999997 52.989912000000004 30.414844C52.890278 30.279497999999997 52.836586 30.115942 52.836586 29.94786C52.836586 29.779839999999997 52.890278 29.616284 52.989912000000004 29.480938000000002C53.732672 28.483853999999997 54.133874000000006 27.273676000000002 54.133874000000006 26.030389999999997C54.133874000000006 24.787042000000003 53.732672 23.576864 52.989912000000004 22.57978H52.993632000000005Z" stroke-width="2"></path><path stroke="#45413c" stroke-linecap="round" stroke-linejoin="round" d="M44.021364 17.15788C43.705907999999994 18.026685999999998 43.199058 18.813466000000002 42.538385999999996 19.460002C41.455245999999995 20.531361999999998 39.993968 21.133567999999997 38.470504 21.136544C37.673246 21.134126 36.885412 20.964494 36.157842 20.638436C35.998439999999995 20.56819 35.820190000000004 20.552751999999998 35.651116 20.594478000000002C35.48198 20.636390000000002 35.331506 20.733047999999997 35.223192 20.86951C34.676662 21.563413999999998 33.979844 22.124328 33.18519 22.51003C32.390598 22.89567 31.518691999999998 23.096116000000002 30.63544 23.096116000000002C29.752188 23.096116000000002 28.880282 22.89567 28.08569 22.51003C27.291036000000002 22.124328 26.594218 21.563413999999998 26.047688 20.86951C25.939373999999997 20.733047999999997 25.788899999999998 20.636390000000002 25.619764 20.594478000000002C25.45069 20.552751999999998 25.27244 20.56819 25.113038 20.638436C24.359614 20.976646000000002 23.541524 21.146463999999998 22.715808 21.13611C21.889967999999996 21.125756 21.076404 20.935416000000004 20.331784 20.578481999999997H20.32577C19.67477 20.266869999999997 19.085646 19.839876 18.58698 19.31827C18.496956 19.22434 18.385170000000002 19.154094 18.26148 19.113856000000002C18.137852 19.073494 18.006164000000002 19.064318 17.878072 19.087196C17.563422 19.145723999999998 17.243997999999998 19.175856 16.923954000000002 19.177220000000002" stroke-width="2"></path></svg>