<svg viewBox="-1 -1 64 64" xmlns="http://www.w3.org/2000/svg" id="Liver--Streamline-Ux.svg" height="64" width="64"><desc>Liver Streamline Illustration: https://streamlinehq.com</desc><path d="M0.995038 31C0.995038 54.097789999999996 25.999204 68.53393200000001 46.00245 56.985068C55.28602 51.625168 61.004962 41.719738 61.004962 31C61.004962 7.90221 36.000796 -6.533932 15.997549999999999 5.014994C6.71398 10.374832 0.995038 20.280261999999997 0.995038 31Z" fill="#daedf7" stroke="#daedf7" stroke-width="2"></path><path d="M18.80677 52.568312C18.80677 53.715683999999996 26.387386 54.432776 32.451854000000004 53.85909C35.266406 53.592862000000004 37.000236 53.10083 37.000236 52.568312C37.000236 51.42094 29.419620000000002 50.703786 23.35509 51.277472C20.5406 51.543761999999994 18.80677 52.035794 18.80677 52.568312Z" fill="#45413c" opacity=".15" stroke-width="2"></path><path d="M30.184638 27.655968V44.325226C30.184638 45.85458 28.944576 47.094332 27.415160000000004 47.093897999999996H27.415160000000004C25.885992 47.093959999999996 24.646488 45.854332 24.646488 44.325226V30.198092Z" fill="#ff6242" stroke="#45413c" stroke-linecap="round" stroke-linejoin="round" stroke-width="2"></path><path d="M11.9784 39.330134C14.806716 41.37911 18.598078 41.497963999999996 21.549215999999998 39.630152C23.651635999999996 38.237694 25.355272 36.32177 26.492538 34.070984L29.872592 34.311792C36.884606 34.795206 42.80672199999999 29.170938 42.685449999999996 22.143300000000004L19.535083999999998 27.115886Z" fill="#e04122" stroke-width="2"></path><path d="M11.9784 39.330134C14.806716 41.37911 18.598078 41.497963999999996 21.549215999999998 39.630152C23.651635999999996 38.237694 25.355272 36.32177 26.492538 34.070984L29.872592 34.311792C36.884606 34.795206 42.80672199999999 29.170938 42.685449999999996 22.143300000000004L19.535083999999998 27.115886Z" fill="none" stroke="#45413c" stroke-linecap="round" stroke-linejoin="round" stroke-width="2"></path><path d="M15.230176 34.074022L21.80726 39.455374" fill="none" stroke="#45413c" stroke-linecap="round" stroke-linejoin="round" stroke-width="2"></path><path d="M19.1983 27.660432L25.388318 35.914058" fill="none" stroke="#45413c" stroke-linecap="round" stroke-linejoin="round" stroke-width="2"></path><path d="M27.475175999999998 25.41008L29.524524 34.289286000000004" fill="none" stroke="#45413c" stroke-linecap="round" stroke-linejoin="round" stroke-width="2"></path><path d="M32.750012 24.277402L33.44993 34.073277999999995" fill="none" stroke="#45413c" stroke-linecap="round" stroke-linejoin="round" stroke-width="2"></path><path d="M38.639268 23.01192L38.432994 31.513111999999996" fill="none" stroke="#45413c" stroke-linecap="round" stroke-linejoin="round" stroke-width="2"></path><path d="M14.469560000000001 40.555068C12.919374000000001 41.981378 10.406452 41.194722 9.94635 39.13905C9.903446 38.947656 9.881312 38.75217 9.880258 38.556002V26.689822C9.880258 16.495534 18.144362 8.231492 28.338588 8.231492H47.926558C51.234382 8.216736000000001 53.358006 11.740878 51.79945 14.658536C48.852962000000005 19.995682000000002 47.673722000000005 21.366191999999998 42.16706799999999 25.842158C38.1982 29.067708 30.609214 29.120222 25.534637999999998 29.75628C20.907082 30.335422 17.54352 37.846412 14.469560000000001 40.555068Z" fill="#ff6242" stroke-width="2"></path><path d="M11.583832 41.069668V30.425384C11.583832 20.231096 19.84775 11.966806 30.042099999999998 11.966372H49.63007C50.606384 11.962342 51.555666 12.286788 52.325272 12.887506C52.466879999999996 10.360757999999999 50.457274 8.233538 47.926558 8.231492H28.338588C18.144362 8.231492 9.880258 16.495534 9.880258 26.689822V38.556002C9.86482 39.668654 10.54403 40.673178 11.582282000000001 41.073388" fill="#ff6242" stroke-width="2"></path><path d="M14.469560000000001 40.555068C12.919374000000001 41.981378 10.406452 41.194722 9.94635 39.13905C9.903446 38.947656 9.881312 38.75217 9.880258 38.556002V26.689822C9.880258 16.495534 18.144362 8.231492 28.338588 8.231492H47.926558C51.234382 8.216736000000001 53.358006 11.740878 51.79945 14.658536C48.852962000000005 19.995682000000002 47.673722000000005 21.366191999999998 42.16706799999999 25.842158C38.1982 29.067708 30.609214 29.120222 25.534637999999998 29.75628C20.907082 30.335422 17.54352 37.846412 14.469560000000001 40.555068Z" fill="none" stroke="#45413c" stroke-linecap="round" stroke-linejoin="round" stroke-width="2"></path><path d="M33.875994 8.231492L32.164918 9.45345C29.34367 11.469814 28.166165999999997 15.089622 29.261210000000002 18.3799" fill="none" stroke="#45413c" stroke-linecap="round" stroke-linejoin="round" stroke-width="2"></path></svg>