<svg viewBox="-1 -1 64 64" xmlns="http://www.w3.org/2000/svg" id="Lungs--Streamline-Ux.svg" height="64" width="64"><desc>Lungs Streamline Illustration: https://streamlinehq.com</desc><path d="M1.018722 31.302746000000003C1.018722 53.986004 25.574008 68.16298599999999 45.218274 56.821388000000006C54.335188 51.557712 59.951457999999995 41.830098 59.951457999999995 31.302746000000003C59.951457999999995 8.61955 35.39611 -5.5574319999999995 15.751906000000002 5.784166C6.634992 11.047842 1.018722 20.775456000000002 1.018722 31.302746000000003Z" fill="#daedf7" stroke="#daedf7" stroke-width="2"></path><path d="M17.143434 51.25075C17.143434 52.32025 27.564083999999998 52.988734 35.900604 52.453984C39.769589999999994 52.205798 42.152994 51.747122 42.152994 51.25075C42.152994 50.18125 31.732343999999998 49.512766 23.395823999999998 50.047578C19.526838 50.295702 17.143434 50.754378 17.143434 51.25075Z" fill="#45413c" opacity=".15" stroke-width="2"></path><path d="M28.707487999999998 1.230886V16.52982L13.406384000000001 28.23015C12.001092 29.327364 12.310533999999999 31.534378 13.963391999999999 32.202862C14.714894 32.506786 15.570680000000001 32.39562 16.219696 31.909788L31.026536 20.583627999999997L45.841498 31.909788C47.268738000000006 32.978234 49.317466 32.100995999999995 49.529134 30.330709999999996C49.62542 29.525764 49.293782 28.729064 48.654748 28.23015L33.357302000000004 16.52982V1.230886Z" fill="#f8f8f8" stroke-width="2"></path><path d="M28.707487999999998 1.230886V16.52982L27.808054000000002 17.21709Q28.071058 19.905162 28.410632 22.587343999999998L31.030193999999998 20.583627999999997L33.663768 22.597697999999998Q34.007062 19.916259999999998 34.266346 17.227444000000002L33.357302000000004 16.52982V1.230886Z" fill="#ffffff" stroke-width="2"></path><path d="M28.707487999999998 1.230886V16.52982L13.406384000000001 28.23015C12.001092 29.327364 12.310533999999999 31.534378 13.963391999999999 32.202862C14.714894 32.506786 15.570680000000001 32.39562 16.219696 31.909788L31.026536 20.583627999999997L45.841498 31.909788C47.268738000000006 32.978234 49.317466 32.100995999999995 49.529134 30.330709999999996C49.62542 29.525764 49.293782 28.729064 48.654748 28.23015L33.357302000000004 16.52982V1.230886" fill="none" stroke="#45413c" stroke-linecap="round" stroke-linejoin="round" stroke-width="2"></path><path d="M15.214118000000001 11.110214C4.969424 15.859475999999999 1.501206 27.113405999999998 0.990016 44.038848C0.91264 46.589155999999996 3.548384 48.637078 6.604798000000001 48.385172L22.22638 47.088628C25.126616000000002 46.847758 27.19444 44.64 26.761989999999997 42.246552L25.347584 34.414402Q23.559752 24.532159999999998 22.703718 14.561444C22.441519999999997 11.507261999999999 18.433344 9.619238000000001 15.214118000000001 11.110214Z" fill="#ff6242" stroke-width="2"></path><path d="M23.385160000000003 21.263582000000003L18.001638 25.388876000000003L14.780242 22.166736C13.859294 21.273006000000002 12.316237999999998 21.711346000000002 12.002704000000001 22.955748C11.861592 23.516042 12.020560000000001 24.109444 12.422939999999999 24.524038L15.32981 27.430908000000002L10.517928000000001 31.114203999999997C9.497221999999999 31.893606 9.703 33.485766000000005 10.888378000000001 33.98003C11.438566 34.20943 12.069291999999999 34.127900000000004 12.543033999999999 33.76613L15.168486 31.758755999999998L16.367752 34.756952L14.534226 37.506156C13.822218000000001 38.573982 14.533172 40.012072 15.813906 40.09478C16.4083 40.133158 16.978018 39.851492 17.308477999999997 39.355926L18.811978 37.10173L19.815324 37.60269C20.963378000000002 38.176562 22.302144000000002 37.292442 22.22514 36.011274C22.189366 35.416632 21.839128000000002 34.886284 21.3063 34.619932L19.553064 33.744057999999995L17.918372 29.656336L23.87279 25.103056C23.699686 23.8235 23.535448 22.541711999999997 23.385160000000003 21.263582000000003Z" fill="#ffffff" stroke="#45413c" stroke-linecap="round" stroke-linejoin="round" stroke-width="2"></path><path d="M21.085332 11.748876C20.125014 11.675529999999998 19.161844 11.847084 18.286032 12.247604C8.041276 16.995378 4.573864 28.249308 4.0618680000000005 45.176238000000005C4.052134000000001 46.447919999999996 4.657439999999999 47.645884 5.6869499999999995 48.392488C3.040852 48.214982 0.923676 46.329872 0.99293 44.040335999999996C1.504182 27.111918000000003 4.970912 15.857988 15.217094000000001 11.111702C17.142628 10.235766 19.39267 10.480046000000002 21.085332 11.748876Z" fill="#ff6242" stroke-width="2"></path><path d="M15.214118000000001 11.110214C4.969424 15.859475999999999 1.501206 27.113405999999998 0.990016 44.038848C0.91264 46.589155999999996 3.548384 48.637078 6.604798000000001 48.385172L22.22638 47.088628C25.126616000000002 46.847758 27.19444 44.64 26.761989999999997 42.246552L25.347584 34.414402Q23.559752 24.532159999999998 22.703718 14.561444C22.441519999999997 11.507261999999999 18.433344 9.619238000000001 15.214118000000001 11.110214Z" fill="none" stroke="#45413c" stroke-linecap="round" stroke-linejoin="round" stroke-width="2"></path><path d="M46.785882 11.110214C57.030576 15.857988 60.498794 27.111918000000003 61.009983999999996 44.038848C61.087360000000004 46.589155999999996 58.451615999999994 48.637078 55.395202 48.385172L39.773619999999994 47.089372C36.873384 46.848502 34.80556 44.640744 35.23801 42.247296L36.652354 34.415146Q38.440248 24.532159999999998 39.296282000000005 14.561444C39.55848 11.507261999999999 43.566656 9.619238000000001 46.785882 11.110214Z" fill="#ff6242" stroke-width="2"></path><path d="M38.61484 21.263582000000003L43.99836200000001 25.388876000000003L47.219758 22.166736C48.140705999999994 21.273006000000002 49.683761999999994 21.711346000000002 49.997296 22.955748C50.138408 23.516042 49.97944 24.109444 49.577059999999996 24.524038L46.670190000000005 27.434566L51.482072 31.117862C52.502778 31.897326 52.297 33.489486 51.111622000000004 33.98375C50.561434000000006 34.213088 49.930708 34.131558 49.456966 33.76985L46.831514 31.762414L45.632248 34.756952L47.465773999999996 37.506156C48.177782 38.573982 47.466828 40.012072 46.186094000000004 40.09478C45.591699999999996 40.133158 45.021982 39.851492 44.691522 39.355926L43.188022000000004 37.10173L42.184675999999996 37.60269C41.036622 38.176562 39.697856 37.292442 39.774860000000004 36.011274C39.810634 35.416632 40.160872 34.886284 40.6937 34.619932L42.446936 33.744057999999995L44.081628 29.656336L38.12721 25.099335999999997C38.300314 23.8235 38.464552 22.541711999999997 38.61484 21.263582000000003Z" fill="#ffffff" stroke="#45413c" stroke-linecap="round" stroke-linejoin="round" stroke-width="2"></path><path d="M40.914668 11.748876C41.874986 11.675529999999998 42.838156 11.847084 43.713968 12.247604C53.958724 16.995378 57.426136 28.249308 57.938131999999996 45.176238000000005C57.947866 46.447919999999996 57.34256 47.645884 56.31305 48.392488C58.959148 48.214982 61.076324 46.329872 61.00707 44.040335999999996C60.49581799999999 27.111918000000003 57.029088 15.857988 46.782906 11.111702C44.857372 10.235766 42.607330000000005 10.480046000000002 40.914668 11.748876Z" fill="#ff6242" stroke-width="2"></path><path d="M46.785882 11.110214C57.030576 15.857988 60.498794 27.111918000000003 61.009983999999996 44.038848C61.087360000000004 46.589155999999996 58.451615999999994 48.637078 55.395202 48.385172L39.773619999999994 47.089372C36.873384 46.848502 34.80556 44.640744 35.23801 42.247296L36.652354 34.415146Q38.440248 24.532159999999998 39.296282000000005 14.561444C39.55848 11.507261999999999 43.566656 9.619238000000001 46.785882 11.110214Z" fill="none" stroke="#45413c" stroke-linecap="round" stroke-linejoin="round" stroke-width="2"></path></svg>