<svg viewBox="-1 -1 64 64" xmlns="http://www.w3.org/2000/svg" id="Stomach-2--Streamline-Ux.svg" height="64" width="64"><desc>Stomach 2 Streamline Illustration: https://streamlinehq.com</desc><path d="M0.995038 31C0.995038 54.097789999999996 25.999204 68.53393200000001 46.00245 56.985068C55.28602 51.625168 61.004962 41.719738 61.004962 31C61.004962 7.90221 36.000796 -6.533932 15.997549999999999 5.014994C6.71398 10.374832 0.995038 20.280261999999997 0.995038 31Z" fill="#daedf7" stroke="#daedf7" stroke-width="2"></path><path d="M19.856925999999998 53.415169999999996C19.856925999999998 54.417648 29.626018000000002 55.044158 37.441304 54.54295C41.068366 54.310326 43.302783999999996 53.880418 43.302783999999996 53.415169999999996C43.302783999999996 52.412754 33.533691999999995 51.786244 25.718405999999998 52.287451999999995C22.091282000000003 52.520076 19.856925999999998 52.949984 19.856925999999998 53.415169999999996Z" fill="#45413c" opacity=".15" stroke-width="2"></path><path d="M32.677286 7.461886C33.127654 7.462072 33.503312 7.806172 33.54293 8.254742L33.551176 8.356794C33.764952 10.80443 34.751372 14.422998 36.176628 14.422998C36.88845 14.422998 37.337019999999995 14.012682 38.06769 13.2866C39.109166 12.014050000000001 40.65867 11.265400000000001 42.302848000000004 11.240228C48.258072 11.240228 52.417528 17.076226000000002 52.418271999999995 25.432586C52.468182 30.196046 50.951972 34.844 48.102824 38.661774C44.802254000000005 42.86246 40.011204 45.085098 34.241298 45.085098C29.078186000000002 45.085098 26.496258 42.42815 24.610466 40.48755C23.876075999999998 39.73146 22.770367999999998 38.462258 21.742718 38.597976C18.166124 39.057829999999996 18.765477999999998 45.490144 18.772236 45.555368L18.776762 45.748188000000006C18.78941 46.236376 18.397198 46.639066 17.908824 46.639314H14.111696C13.632126000000001 46.63888 13.243509999999999 46.250264 13.243076 45.770694V45.708445999999995C13.243076 38.973819999999996 15.233152 33.905196 19.157069999999997 32.854296C19.759152 32.69384 20.379958 32.614108 21.00312 32.61727C24.528688 32.61727 28.993432 35.838294 33.07111 30.178624C40.0675 20.466758 29.408212 20.834356 28.018234 8.55104C27.952824 7.969666 28.408337999999997 7.460894 28.993432 7.461886Z" fill="#ff6242" stroke-width="2"></path><path d="M35.784292 14.329998C35.447508 14.60844 35.02628 14.764494000000001 34.589366 14.772554C32.972096 14.772554 31.860374 10.681422000000001 31.618883999999998 7.914175999999999L31.579824000000002 7.464118H32.677286C33.127654 7.464303999999999 33.503312 7.808404 33.54293 8.257036L33.551176 8.359026C33.74474 10.572612000000001 34.569092 13.747136 35.784292 14.329998Z" fill="#ff6242" stroke-width="2"></path><path d="M34.45433 45.084292C38.790486 44.489278 42.722339999999996 42.22293 45.410598 38.769034000000005C48.317406 34.876736 49.864988000000004 30.13727 49.815326 25.27957C49.815326 18.078394 46.779619999999994 12.73077 42.176863999999995 11.240972000000001H42.305142C48.260366 11.240972000000001 52.419760000000004 17.07697 52.420566 25.43333C52.46967 30.19679 50.952654 34.844496 48.102824 38.661774C44.843545999999996 42.811434000000006 40.12826 45.027314000000004 34.45433 45.084292Z" fill="#ff6242" stroke-width="2"></path><path d="M16.707884 46.63857L16.700382 46.334025999999994C16.692135999999998 46.259006 15.993768 38.765252 20.159982 38.232672C20.647426000000003 38.204338 21.129414 38.347682 21.522184 38.63778C18.18863 39.325608 18.763246 45.494608 18.770004 45.558406000000005L18.774468000000002 45.751163999999996C18.786682000000003 46.239228000000004 18.39478 46.641608 17.906592 46.64229C17.338734 46.639314 16.707884 46.639314 16.707884 46.63857Z" fill="#ff6242" stroke-width="2"></path><path d="M32.677286 7.461886C33.127654 7.462072 33.503312 7.806172 33.54293 8.254742L33.551176 8.356794C33.764952 10.80443 34.751372 14.422998 36.176628 14.422998C36.88845 14.422998 37.337019999999995 14.012682 38.06769 13.2866C39.109166 12.014050000000001 40.65867 11.265400000000001 42.302848000000004 11.240228C48.258072 11.240228 52.417528 17.076226000000002 52.418271999999995 25.432586C52.468182 30.196046 50.951972 34.844 48.102824 38.661774C44.802254000000005 42.86246 40.011204 45.085098 34.241298 45.085098C29.078186000000002 45.085098 26.496258 42.42815 24.610466 40.48755C23.876075999999998 39.73146 22.770367999999998 38.462258 21.742718 38.597976C18.166124 39.057829999999996 18.765477999999998 45.490144 18.772236 45.555368L18.776762 45.748188000000006C18.78941 46.236376 18.397198 46.639066 17.908824 46.639314H14.111696C13.632126000000001 46.63888 13.243509999999999 46.250264 13.243076 45.770694V45.708445999999995C13.243076 38.973819999999996 15.233152 33.905196 19.157069999999997 32.854296C19.759152 32.69384 20.379958 32.614108 21.00312 32.61727C24.528688 32.61727 28.993432 35.838294 33.07111 30.178624C40.0675 20.466758 29.408212 20.834356 28.018234 8.55104L28.004779999999997 8.428032C27.94712 7.913308000000001 28.349438 7.462692 28.867386 7.461886Z" fill="none" stroke="#45413c" stroke-linecap="round" stroke-linejoin="round" stroke-width="2"></path><path d="M46.141268000000004 31.26102C46.091234 31.08494 45.9327 30.961622 45.749676 30.956476C44.936918 30.829438 44.152122 30.56352 43.429574 30.170378000000003C42.587366 29.801105999999997 41.641122 29.743879999999997 40.760598 30.009116000000002C40.287662 30.250481999999998 39.788934000000005 30.437412 39.273838000000005 30.566433999999997C38.641003999999995 30.571146000000002 38.021872 30.38186 37.499832000000005 30.02412C37.451038 29.997087999999998 37.40305 29.969312000000002 37.355062000000004 29.941598000000003C37.052006 29.763161999999998 36.666986 29.81022 36.415886 30.05636C35.651798 30.78796 35.04953 31.671584 34.647832 32.650254000000004C34.145136 34.02467 32.897262 34.987716 31.440324 35.125666H31.42005C30.450122 35.194362 29.494206000000002 35.396234 28.579334 35.725764C27.487389999999998 36.101794000000005 27.104478 37.45079 27.835954 38.344458C29.929941999999997 40.841074 33.110542 42.15876 36.356614 41.874551999999994C41.726744 41.494243999999995 46.677568 37.15102 46.323548 32.269946C46.297942 31.928264 46.236872 31.590116 46.141268000000004 31.26102Z" fill="#fff48c" stroke-width="2"></path><path d="M46.141268000000004 31.26102C46.091234 31.08494 45.9327 30.961622 45.749676 30.956476C44.936918 30.829438 44.152122 30.56352 43.429574 30.170378000000003C42.587366 29.801105999999997 41.641122 29.743879999999997 40.760598 30.009116000000002C40.287662 30.250481999999998 39.788934000000005 30.437412 39.273838000000005 30.566433999999997C38.641003999999995 30.571146000000002 38.021872 30.38186 37.499832000000005 30.02412C37.451038 29.997087999999998 37.40305 29.969312000000002 37.355062000000004 29.941598000000003C37.052006 29.763161999999998 36.666986 29.81022 36.415886 30.05636C35.651798 30.78796 35.04953 31.671584 34.647832 32.650254000000004C34.145136 34.02467 32.897262 34.987716 31.440324 35.125666H31.42005C30.450122 35.194362 29.494206000000002 35.396234 28.579334 35.725764C27.487389999999998 36.101794000000005 27.104478 37.45079 27.835954 38.344458C29.929941999999997 40.841074 33.110542 42.15876 36.356614 41.874551999999994C41.726744 41.494243999999995 46.677568 37.15102 46.323548 32.269946C46.297942 31.928264 46.236872 31.590116 46.141268000000004 31.26102Z" fill="none" stroke="#45413c" stroke-linecap="round" stroke-linejoin="round" stroke-width="2"></path><path d="M37.56208 26.016936C37.56208 27.242242 38.88857 28.008128 39.9497 27.395444C40.442228 27.111112000000002 40.745594 26.585600000000003 40.745594 26.016936C40.745594 24.791568 39.419166000000004 24.025744 38.357974 24.638428C37.865446 24.92276 37.56208 25.448272 37.56208 26.016936Z" fill="#fff48c" stroke-width="2"></path><path d="M47.113428 25.486587999999998C47.113428 26.303686 46.228874000000005 26.81438 45.521268000000006 26.405800000000003C44.813662 25.997282000000002 44.813662 24.975894 45.521268000000006 24.567376C45.68284 24.474066 45.866174 24.425024 46.052732 24.425148C46.638445999999995 24.426016 47.11299399999999 24.900874 47.113428 25.486587999999998Z" fill="#fff48c" stroke-width="2"></path><path d="M43.929852000000004 22.303074000000002C43.929294 23.120172 43.044430000000006 23.630184 42.337072 23.221169999999997C41.629776 22.812094000000002 41.630458 21.790768 42.338374 21.382746C42.499822 21.289684 42.682908000000005 21.240766 42.869218000000004 21.24089C43.455056000000006 21.24213 43.92948 21.717174 43.929852000000004 22.303074000000002Z" fill="#fff48c" stroke-width="2"></path><path d="M47.113428 18.057376C47.113428 18.874474 46.228874000000005 19.385168 45.521268000000006 18.976588C44.813662 18.56807 44.813662 17.546682 45.521268000000006 17.138164C45.68284 17.044854 45.866174 16.995812 46.052732 16.995936C46.638322 16.997176 47.11256 17.471785999999998 47.113428 18.057376Z" fill="#fff48c" stroke-width="2"></path></svg>