<svg viewBox="-1 -1 64 64" xmlns="http://www.w3.org/2000/svg" id="Sore-Throat-4--Streamline-Ux.svg" height="64" width="64"><desc>Sore Throat 4 Streamline Illustration: https://streamlinehq.com</desc><path d="M1.239194 30.76037C1.228716 53.676004000000006 26.029087999999998 68.009598 45.879814 56.560801999999995C55.100950000000005 51.242566 60.780584 41.405274000000006 60.775686 30.76037C60.78616399999999 7.844735999999999 35.985792000000004 -6.488858 16.135066 4.959938C6.913930000000001 10.278174 1.2342959999999998 20.115465999999998 1.239194 30.76037Z" fill="#daedf7" stroke="#daedf7" stroke-width="2"></path><path d="M1.224314 30.76037C1.213836 53.676004000000006 26.014208 68.009598 45.864934000000005 56.560801999999995C55.08607 51.242566 60.76570400000001 41.405274000000006 60.760806 30.76037C60.771283999999994 7.844735999999999 35.970912 -6.488858 16.120186 4.959938C6.89905 10.278174 1.219416 20.115465999999998 1.224314 30.76037Z" fill="none" stroke="#daedf7" stroke-linecap="round" stroke-linejoin="round" stroke-width="2"></path><path d="M45.379536 60.933476L45.34308 40.021248C51.217084 36.069554 52.839499999999994 31.462892 52.839499999999994 24.70328C52.839499999999994 12.801884 45.648987999999996 2.21557 31.914624 2.21557C22.337422 2.21557 11.786076 8.115614 11.786076 19.292106C11.786076 21.166056 3.479254 33.878598 8.230996 34.072844H11.611918V37.044442C11.633556 37.237696 11.825880000000002 37.363431999999996 12.01157 37.305648C12.253308 37.229264 12.502982 37.18078 12.755756 37.161312L20.171762 36.645534C25.496632 36.2793 30.735756 38.131984 34.646592 41.764191999999994C38.5237 45.34401 40.720174 50.38678 40.700706 55.663723999999995V60.933476Z" fill="#ffcebf" stroke-width="2"></path><path d="M33.55037 55.660003999999994V61.38H22.888168L22.852456 49.274747999999995H17.475506C14.901886 49.27152400000001 12.735854 47.347044000000004 12.429822000000001 44.791652000000006C12.412834 44.661142 12.455490000000001 44.52995 12.545886 44.434408000000005C12.63622 44.339114 12.76301 44.287096000000005 12.894202 44.291498C13.013118 44.300488 13.13253 44.300488 13.251446 44.291498L20.67266 43.770574C24.022582 43.519102 27.324267999999996 44.68557 29.772772 46.985583999999996C32.191082 49.220560000000006 33.561344 52.367121999999995 33.55037 55.660003999999994Z" fill="#ffcebf" stroke-width="2"></path><path d="M51.337674 33.307764C51.575816 19.126938000000003 43.140964 6.374963999999999 26.823494 6.374963999999999C23.12755 6.379924 19.468248 7.108052000000001 16.051862 8.518242C20.008081999999998 4.36263 26.138084 2.21557 31.914624 2.21557C45.648987999999996 2.21557 52.839499999999994 12.801946 52.839499999999994 24.70328C52.956432 27.645986 52.4458 30.579888 51.341394 33.309996" fill="#ffdcd1" stroke-width="2"></path><path d="M17.603536000000002 24.70328C17.603536000000002 25.855922 18.851348 26.576362 19.849548 26.00001C20.312812 25.732542000000002 20.598198 25.238216 20.598198 24.70328C20.598198 23.550638000000003 19.350448 22.830198 18.352186 23.40655C17.888922 23.674018 17.603536000000002 24.168344 17.603536000000002 24.70328Z" fill="#45413c" stroke-width="2"></path><path d="M38.462134 56.026176V61.38H35.78299V56.026176C35.783672 47.749238 28.768744 41.20613 20.511894 41.782047999999996L13.099608 42.308986000000004C12.068424 42.381154 11.345752000000001 41.30998 11.798848 40.380786C12.009089999999999 39.949576 12.43348 39.663322 12.912058 39.629842L20.324344 39.108856C30.135038 38.413216 38.473852 46.190868 38.462134 56.026176Z" fill="#ff6242" stroke-width="2"></path><path d="M45.379536 60.933476L45.34308 40.021248C51.217084 36.069554 52.839499999999994 31.462892 52.839499999999994 24.70328C52.839499999999994 12.801884 45.648987999999996 2.21557 31.914624 2.21557C22.337422 2.21557 11.786076 8.115614 11.786076 19.292106C11.786076 21.166056 3.479254 33.878598 8.230996 34.072844H11.611918V37.044442C11.633556 37.237696 11.825880000000002 37.363431999999996 12.01157 37.305648C12.253308 37.229264 12.502982 37.18078 12.755756 37.161312L20.171762 36.645534C25.496632 36.2793 30.735756 38.131984 34.646592 41.764191999999994C38.5237 45.34401 40.720174 50.38678 40.700706 55.663723999999995V60.933476" fill="none" stroke="#45413c" stroke-linecap="round" stroke-linejoin="round" stroke-width="2"></path><path d="M33.554834 60.933476V55.663723999999995C33.565622 52.369477999999994 32.19288 49.221985999999994 29.771346 46.98856C27.32216 44.687492 24.019233999999997 43.520714 20.668196 43.772805999999996L13.252934 44.288522C13.133769999999998 44.297078 13.014234 44.298565999999994 12.894946000000001 44.292986C12.619356 44.280027999999994 12.398078 44.517674 12.430565999999999 44.791652000000006C12.735482 47.349213999999996 14.904304 49.27512 17.47997 49.275492H22.856176L22.896352 60.933476" fill="none" stroke="#45413c" stroke-linecap="round" stroke-linejoin="round" stroke-width="2"></path></svg>